<?xml version="1.0" encoding="UTF-8"?>
<!DOCTYPE svg PUBLIC "-//W3C//DTD SVG 1.1//EN" "http://www.w3.org/Graphics/SVG/1.1/DTD/svg11.dtd">
<svg xmlns="http://www.w3.org/2000/svg" xmlns:xlink="http://www.w3.org/1999/xlink" version="1.1" width="523px" height="804px" viewBox="-0.5 -0.5 523 804" style="background-color: rgb(255, 255, 255);"><defs><clipPath id="mx-clip-54-311-152-114-0"><rect x="54" y="311" width="152" height="114"/></clipPath><clipPath id="mx-clip-54-433-152-112-0"><rect x="54" y="433" width="152" height="112"/></clipPath><clipPath id="mx-clip-304-31-152-114-0"><rect x="304" y="31" width="152" height="114"/></clipPath><clipPath id="mx-clip-304-153-152-92-0"><rect x="304" y="153" width="152" height="92"/></clipPath><clipPath id="mx-clip-54-31-152-114-0"><rect x="54" y="31" width="152" height="114"/></clipPath><clipPath id="mx-clip-54-153-152-82-0"><rect x="54" y="153" width="152" height="82"/></clipPath><clipPath id="mx-clip-304-311-162-114-0"><rect x="304" y="311" width="162" height="114"/></clipPath><clipPath id="mx-clip-304-433-162-82-0"><rect x="304" y="433" width="162" height="82"/></clipPath><clipPath id="mx-clip-54-621-152-94-0"><rect x="54" y="621" width="152" height="94"/></clipPath><clipPath id="mx-clip-54-723-152-82-0"><rect x="54" y="723" width="152" height="82"/></clipPath></defs><g><path d="M 210 320 L 260 320 L 260 125.06 L 300 125.06" fill="none" stroke="rgb(0, 0, 0)" stroke-miterlimit="10" pointer-events="stroke"/><path d="M 210 430 L 290 430 L 300 430" fill="none" stroke="rgb(0, 0, 0)" stroke-miterlimit="10" pointer-events="stroke"/><path d="M 80 540 L 80 550 L 80 590" fill="none" stroke="rgb(0, 0, 0)" stroke-miterlimit="10" pointer-events="stroke"/><path d="M 130 280 L 130 230" fill="none" stroke="rgb(0, 0, 0)" stroke-miterlimit="10" pointer-events="stroke"/><path d="M 50 306 L 50 280 L 210 280 L 210 306" fill="rgb(255, 255, 255)" stroke="rgb(0, 0, 0)" stroke-miterlimit="10" pointer-events="all"/><path d="M 50 306 L 50 540 L 210 540 L 210 306" fill="none" stroke="rgb(0, 0, 0)" stroke-miterlimit="10" pointer-events="none"/><path d="M 50 306 L 210 306" fill="none" stroke="rgb(0, 0, 0)" stroke-miterlimit="10" pointer-events="none"/><g fill="rgb(0, 0, 0)" font-family="Helvetica" font-weight="bold" pointer-events="none" text-anchor="middle" font-size="12px"><text x="129.5" y="297.5">User</text></g><g fill="rgb(0, 0, 0)" font-family="Helvetica" pointer-events="none" clip-path="url(#mx-clip-54-311-152-114-0)" font-size="12px"><text x="55.5" y="323.5">+ user_id: int</text><text x="55.5" y="337.5">+ email: string</text><text x="55.5" y="351.5">+ username: string</text><text x="55.5" y="365.5">+ profile_pic_src: string</text><text x="55.5" y="379.5">+ followers: [User]</text><text x="55.5" y="393.5">+ following: [User]</text><text x="55.5" y="407.5">- password: string</text></g><path d="M 50 424 L 210 424" fill="none" stroke="rgb(0, 0, 0)" stroke-miterlimit="10" pointer-events="none"/><g fill="rgb(0, 0, 0)" font-family="Helvetica" pointer-events="none" clip-path="url(#mx-clip-54-433-152-112-0)" font-size="12px"><text x="55.5" y="445.5">+ signUp()</text><text x="55.5" y="459.5">+ logIn()</text><text x="55.5" y="473.5">+ logOut()</text><text x="55.5" y="487.5">+ edit()</text><text x="55.5" y="501.5">+ follow()</text><text x="55.5" y="515.5">+ unfollow()</text><text x="55.5" y="529.5">+ removeFollower()</text></g><path d="M 50 363 L 50 340 L 0 340 L 0 440 L 50 440" fill="none" stroke="rgb(0, 0, 0)" stroke-miterlimit="10" pointer-events="none"/><path d="M 300 93.06 L 290 93.06 L 210 93.06" fill="none" stroke="rgb(0, 0, 0)" stroke-miterlimit="10" pointer-events="none"/><path d="M 300 26 L 300 0 L 460 0 L 460 26" fill="rgb(255, 255, 255)" stroke="rgb(0, 0, 0)" stroke-miterlimit="10" pointer-events="none"/><path d="M 300 26 L 300 240 L 460 240 L 460 26" fill="none" stroke="rgb(0, 0, 0)" stroke-miterlimit="10" pointer-events="none"/><path d="M 300 26 L 460 26" fill="none" stroke="rgb(0, 0, 0)" stroke-miterlimit="10" pointer-events="none"/><g fill="rgb(0, 0, 0)" font-family="Helvetica" font-weight="bold" pointer-events="none" text-anchor="middle" font-size="12px"><text x="379.5" y="17.5">Post</text></g><g fill="rgb(0, 0, 0)" font-family="Helvetica" pointer-events="none" clip-path="url(#mx-clip-304-31-152-114-0)" font-size="12px"><text x="305.5" y="43.5">+ post_id: int</text><text x="305.5" y="57.5">+ community_id: int</text><text x="305.5" y="71.5">+ title: string</text><text x="305.5" y="85.5">+ description: string</text><text x="305.5" y="99.5">+ media_src: string</text><text x="305.5" y="113.5">+ likes: int</text><text x="305.5" y="127.5">+ dislikes: int</text></g><path d="M 300 144 L 460 144" fill="none" stroke="rgb(0, 0, 0)" stroke-miterlimit="10" pointer-events="none"/><g fill="rgb(0, 0, 0)" font-family="Helvetica" pointer-events="none" clip-path="url(#mx-clip-304-153-152-92-0)" font-size="12px"><text x="305.5" y="165.5">+ delete()</text><text x="305.5" y="179.5">+ savePost()</text><text x="305.5" y="193.5">+ unsavePost()</text><text x="305.5" y="207.5">+ addReaction()</text><text x="305.5" y="221.5">+ deleteReaction()</text></g><path d="M 50 26 L 50 0 L 210 0 L 210 26" fill="rgb(255, 255, 255)" stroke="rgb(0, 0, 0)" stroke-miterlimit="10" pointer-events="none"/><path d="M 50 26 L 50 230 L 210 230 L 210 26" fill="none" stroke="rgb(0, 0, 0)" stroke-miterlimit="10" pointer-events="none"/><path d="M 50 26 L 210 26" fill="none" stroke="rgb(0, 0, 0)" stroke-miterlimit="10" pointer-events="none"/><g fill="rgb(0, 0, 0)" font-family="Helvetica" font-weight="bold" pointer-events="none" text-anchor="middle" font-size="12px"><text x="129.5" y="17.5">Community</text></g><g fill="rgb(0, 0, 0)" font-family="Helvetica" pointer-events="none" clip-path="url(#mx-clip-54-31-152-114-0)" font-size="12px"><text x="55.5" y="43.5">+ community_id: int</text><text x="55.5" y="57.5">+ name: string</text><text x="55.5" y="71.5">+ title: string</text><text x="55.5" y="85.5">+ description: string</text><text x="55.5" y="99.5">+ logo_src: string</text><text x="55.5" y="113.5">+ type: string</text></g><path d="M 50 144 L 210 144" fill="none" stroke="rgb(0, 0, 0)" stroke-miterlimit="10" pointer-events="none"/><g fill="rgb(0, 0, 0)" font-family="Helvetica" pointer-events="none" clip-path="url(#mx-clip-54-153-152-82-0)" font-size="12px"><text x="55.5" y="165.5">+ join()</text><text x="55.5" y="179.5">+ leave()</text><text x="55.5" y="193.5"># edit()</text></g><path d="M 385 280 L 385 240" fill="none" stroke="rgb(0, 0, 0)" stroke-miterlimit="10" pointer-events="none"/><path d="M 300 306 L 300 280 L 470 280 L 470 306" fill="rgb(255, 255, 255)" stroke="rgb(0, 0, 0)" stroke-miterlimit="10" pointer-events="none"/><path d="M 300 306 L 300 510 L 470 510 L 470 306" fill="none" stroke="rgb(0, 0, 0)" stroke-miterlimit="10" pointer-events="none"/><path d="M 300 306 L 470 306" fill="none" stroke="rgb(0, 0, 0)" stroke-miterlimit="10" pointer-events="none"/><g fill="rgb(0, 0, 0)" font-family="Helvetica" font-weight="bold" pointer-events="none" text-anchor="middle" font-size="12px"><text x="384.5" y="297.5">Comment</text></g><g fill="rgb(0, 0, 0)" font-family="Helvetica" pointer-events="none" clip-path="url(#mx-clip-304-311-162-114-0)" font-size="12px"><text x="305.5" y="323.5">+ comment_id: int</text><text x="305.5" y="337.5">+ post: Post</text><text x="305.5" y="351.5">+ parent_comment: Comment</text><text x="305.5" y="365.5">+ user_id: int</text><text x="305.5" y="379.5">+ message: string</text><text x="305.5" y="393.5">+ likes: int</text><text x="305.5" y="407.5">+ dislikes: int</text></g><path d="M 300 424 L 470 424" fill="none" stroke="rgb(0, 0, 0)" stroke-miterlimit="10" pointer-events="none"/><g fill="rgb(0, 0, 0)" font-family="Helvetica" pointer-events="none" clip-path="url(#mx-clip-304-433-162-82-0)" font-size="12px"><text x="305.5" y="445.5">+ addComment()</text><text x="305.5" y="459.5">+ deleteComment()</text><text x="305.5" y="473.5">+ addReaction()</text><text x="305.5" y="487.5">+ deleteReaction()</text></g><path d="M 180 590 L 180 550 L 180 540" fill="none" stroke="rgb(0, 0, 0)" stroke-miterlimit="10" pointer-events="none"/><path d="M 50 616 L 50 590 L 210 590 L 210 616" fill="rgb(255, 255, 255)" stroke="rgb(0, 0, 0)" stroke-miterlimit="10" pointer-events="none"/><path d="M 50 616 L 50 800 L 210 800 L 210 616" fill="none" stroke="rgb(0, 0, 0)" stroke-miterlimit="10" pointer-events="none"/><path d="M 50 616 L 210 616" fill="none" stroke="rgb(0, 0, 0)" stroke-miterlimit="10" pointer-events="none"/><g fill="rgb(0, 0, 0)" font-family="Helvetica" font-weight="bold" pointer-events="none" text-anchor="middle" font-size="12px"><text x="129.5" y="607.5">Message</text></g><g fill="rgb(0, 0, 0)" font-family="Helvetica" pointer-events="none" clip-path="url(#mx-clip-54-621-152-94-0)" font-size="12px"><text x="55.5" y="633.5">+ message_id: int</text><text x="55.5" y="647.5">+ sender: User</text><text x="55.5" y="661.5">+ recipient: User</text><text x="55.5" y="675.5">+ message: string</text><text x="55.5" y="689.5">+ is_read: bool</text></g><path d="M 50 714 L 210 714" fill="none" stroke="rgb(0, 0, 0)" stroke-miterlimit="10" pointer-events="none"/><g fill="rgb(0, 0, 0)" font-family="Helvetica" pointer-events="none" clip-path="url(#mx-clip-54-723-152-82-0)" font-size="12px"><text x="55.5" y="735.5">+ send()</text></g><path d="M 470 370 L 470 340 L 520 340 L 520 440 L 470 440" fill="none" stroke="rgb(0, 0, 0)" stroke-miterlimit="10" pointer-events="none"/></g></svg>